<?xml version="1.0" encoding="utf-8"?>
<!-- Generator: Adobe Illustrator 26.0.3, SVG Export Plug-In . SVG Version: 6.00 Build 0)  -->
<svg version="1.1" id="Capa_1" xmlns="http://www.w3.org/2000/svg" xmlns:xlink="http://www.w3.org/1999/xlink" x="0px" y="0px"
	 viewBox="0 0 315.54 87.88" style="enable-background:new 0 0 315.54 87.88;" xml:space="preserve">
<style type="text/css">
	.st0{fill-rule:evenodd;clip-rule:evenodd;fill:#01A630;}
	.st1{fill:#FFFFFF;}
</style>
<g>
	<g>
		<path class="st0" d="M29.38,48.86c2.89,0.01,12.93,0.24,13.89-0.17c0.55-0.23,4.15-4.44,4.85-5.23c3.2-3.58,6.2-6.91,9.42-10.47
			c1.28-1.42,3.26-4.03,6.18-2.09c2.32,1.54,2.43,4.99,0.59,7.31l-9.44,10.52l15.15,0.15c3.87-0.23,11.1-13.55,4.37-24.2
			c-2.57-4.07-7.6-8.03-14.4-7.21c-6.57,0.79-10,5.62-13.02,9.07L36.5,38.18c-2.06,1.98-5.61,1.48-6.6-1.54
			c-1.18-3.63,2.09-6.15,3.42-7.65l10.56-11.86C47.69,12.19,47.21,3.82,43.11,0c-1.39,1.07-3.65,3.88-5,5.39L23.03,22.18
			c-5.81,6.63-7.02,15.95-1.39,23.99C24.01,49.55,24.5,48.85,29.38,48.86"/>
		<path class="st0" d="M35.76,87.88c1.21-0.7,20.7-22.74,24.41-26.9l8.09-9.2c-3.06-0.03-15.65-0.56-16.87,0.45
			c-2.04,1.69-13.48,15.98-15.61,17.08L11.64,39.69c-1.06-1.24-0.92-1.37-3.02-1.37L0,45.4L35.76,87.88z"/>
	</g>
	<g>
		<path class="st0" d="M137.1,53.31H263.5c5.89,0,10.71,4.82,10.71,10.71v0c0,5.89-4.82,10.71-10.71,10.71H137.1
			c-5.89,0-10.71-4.82-10.71-10.71v0C126.39,58.14,131.21,53.31,137.1,53.31"/>
		<path d="M308.97,32.86h-14.83v-5.73h14.83V32.86z M315.05,45.41c-0.85-1.11-1.68-2.22-2.52-3.35c-0.83-1.12-1.7-2.24-2.6-3.35
			c0.67-0.03,1.31-0.18,1.92-0.44c0.61-0.26,1.14-0.62,1.6-1.07c0.45-0.45,0.81-0.98,1.07-1.57c0.26-0.6,0.39-1.28,0.39-2.03v-7.13
			c0-0.82-0.15-1.55-0.44-2.19c-0.29-0.64-0.68-1.18-1.16-1.62c-0.48-0.44-1.04-0.77-1.68-1.01c-0.64-0.23-1.33-0.35-2.06-0.35
			h-18.37c-0.82,0-1.51,0.28-2.08,0.85c-0.57,0.57-0.85,1.26-0.85,2.08v12.47v8.66v1.88c0,0.5,0.09,0.93,0.26,1.29
			c0.17,0.36,0.41,0.67,0.7,0.92c0.29,0.25,0.61,0.44,0.94,0.57c0.34,0.13,0.68,0.2,1.03,0.2c0.35,0,0.69-0.07,1.03-0.2
			c0.34-0.13,0.65-0.32,0.94-0.57c0.29-0.25,0.52-0.55,0.7-0.92c0.17-0.36,0.26-0.79,0.26-1.29v-1.88v-6.65h6.91
			c0.52,0,1.08,0.25,1.66,0.74c0.58,0.5,1.16,1.08,1.73,1.75c0.57,0.67,1.1,1.35,1.6,2.03c0.5,0.69,0.89,1.22,1.18,1.6
			c0.52,0.7,1.04,1.38,1.55,2.03c0.51,0.66,0.9,1.15,1.16,1.49c0.26,0.34,0.41,0.53,0.44,0.59c0.73,0.96,1.47,1.43,2.21,1.4
			c0.74-0.03,1.38-0.31,1.9-0.85c0.52-0.54,0.86-1.21,1.01-2.01C315.63,46.69,315.49,46,315.05,45.41z M279.99,44.32h-14.44V27.08
			h14.44V44.32z M285.68,44.85V26.47c0-1.57-0.5-2.84-1.49-3.78c-0.99-0.95-2.26-1.42-3.81-1.42h-15.4c-0.76,0-1.46,0.12-2.1,0.37
			c-0.64,0.25-1.2,0.6-1.66,1.05c-0.47,0.45-0.84,1-1.12,1.64c-0.28,0.64-0.42,1.34-0.42,2.1v18.5c0,0.76,0.15,1.46,0.46,2.1
			c0.31,0.64,0.71,1.2,1.2,1.66c0.5,0.47,1.07,0.82,1.73,1.07c0.66,0.25,1.33,0.37,2.03,0.37l15.36,0.04c1.63,0,2.91-0.48,3.83-1.44
			C285.22,47.78,285.68,46.48,285.68,44.85z M257.09,47.12V24.2c0-0.5-0.09-0.93-0.28-1.29c-0.19-0.36-0.42-0.67-0.7-0.92
			c-0.28-0.25-0.59-0.43-0.94-0.55c-0.35-0.12-0.69-0.18-1.01-0.18c-0.32,0-0.66,0.06-1.01,0.18c-0.35,0.12-0.67,0.3-0.96,0.55
			c-0.29,0.25-0.52,0.55-0.7,0.92c-0.18,0.36-0.26,0.79-0.26,1.29v8.71h-14.87V24.2c0-0.5-0.09-0.93-0.28-1.29
			c-0.19-0.36-0.42-0.67-0.7-0.92c-0.28-0.25-0.59-0.43-0.94-0.55c-0.35-0.12-0.69-0.18-1.01-0.18c-0.32,0-0.66,0.06-1.01,0.18
			c-0.35,0.12-0.67,0.3-0.96,0.55c-0.29,0.25-0.52,0.55-0.7,0.92c-0.18,0.36-0.26,0.79-0.26,1.29v22.92c0,0.5,0.09,0.93,0.26,1.29
			c0.17,0.36,0.41,0.67,0.7,0.92c0.29,0.25,0.61,0.44,0.94,0.57c0.34,0.13,0.68,0.2,1.03,0.2c0.35,0,0.69-0.07,1.03-0.2
			c0.34-0.13,0.65-0.32,0.94-0.57c0.29-0.25,0.52-0.55,0.7-0.92c0.17-0.36,0.26-0.79,0.26-1.29v-8.36h14.87v8.36
			c0,0.5,0.09,0.93,0.26,1.29c0.17,0.36,0.41,0.67,0.7,0.92c0.29,0.25,0.61,0.44,0.94,0.57c0.34,0.13,0.68,0.2,1.03,0.2
			s0.69-0.07,1.03-0.2c0.34-0.13,0.65-0.32,0.94-0.57c0.29-0.25,0.52-0.55,0.7-0.92C257,48.05,257.09,47.62,257.09,47.12z
			 M227.89,24.2c0-0.35-0.07-0.69-0.2-1.03c-0.13-0.34-0.31-0.65-0.55-0.94c-0.23-0.29-0.54-0.53-0.92-0.7
			c-0.38-0.18-0.8-0.26-1.27-0.26h-7.61c-0.41,0-0.82,0.03-1.25,0.09c-0.42,0.06-0.84,0.16-1.25,0.31
			c-0.41-0.18-0.82-0.28-1.22-0.33c-0.41-0.04-0.82-0.07-1.23-0.07h-7.61c-0.5,0-0.93,0.09-1.29,0.28c-0.36,0.19-0.67,0.42-0.92,0.7
			c-0.25,0.28-0.43,0.59-0.55,0.94c-0.12,0.35-0.17,0.69-0.17,1.01c0,0.32,0.06,0.66,0.17,1.01c0.12,0.35,0.3,0.67,0.55,0.96
			c0.25,0.29,0.55,0.53,0.92,0.7c0.36,0.17,0.79,0.26,1.29,0.26h7.13v20.04c0,0.96,0.31,1.7,0.94,2.21
			c0.63,0.51,1.29,0.77,1.99,0.77c0.35,0,0.69-0.07,1.03-0.2c0.34-0.13,0.65-0.32,0.94-0.57c0.29-0.25,0.52-0.55,0.7-0.92
			c0.18-0.36,0.26-0.79,0.26-1.29V27.13h7.17c0.47,0,0.89-0.09,1.27-0.26c0.38-0.17,0.69-0.41,0.92-0.7
			c0.23-0.29,0.42-0.61,0.55-0.94C227.82,24.89,227.89,24.55,227.89,24.2z M193.44,32.9h-15.01l-0.04-5.6h15.05V32.9z M199.25,47.25
			v-20.3c0-0.99-0.18-1.84-0.55-2.56c-0.36-0.71-0.84-1.31-1.42-1.77c-0.58-0.47-1.23-0.81-1.95-1.03
			c-0.71-0.22-1.44-0.33-2.17-0.33h-14.65c-0.82,0-1.58,0.13-2.3,0.39c-0.71,0.26-1.34,0.63-1.88,1.12
			c-0.54,0.48-0.97,1.08-1.29,1.79c-0.32,0.71-0.48,1.52-0.48,2.43v20.3c0,0.5,0.09,0.93,0.26,1.29c0.17,0.36,0.41,0.67,0.7,0.92
			c0.29,0.25,0.61,0.43,0.96,0.55c0.35,0.12,0.69,0.18,1.01,0.18c0.32,0,0.66-0.06,1.01-0.18c0.35-0.12,0.66-0.3,0.94-0.55
			c0.28-0.25,0.51-0.55,0.7-0.92c0.19-0.36,0.28-0.79,0.28-1.29v-8.49h15.01v8.53c0,0.5,0.09,0.93,0.28,1.29
			c0.19,0.36,0.42,0.67,0.7,0.92c0.28,0.25,0.59,0.42,0.94,0.52c0.35,0.1,0.7,0.15,1.05,0.15c0.67-0.03,1.31-0.3,1.92-0.81
			C198.95,48.91,199.25,48.18,199.25,47.25z M169.97,45.46v-21.3c0-0.5-0.1-0.93-0.28-1.29c-0.19-0.36-0.42-0.67-0.7-0.92
			c-0.28-0.25-0.59-0.43-0.94-0.55c-0.35-0.12-0.69-0.17-1.01-0.17c-0.32,0-0.66,0.06-1.01,0.17c-0.35,0.12-0.67,0.3-0.96,0.55
			c-0.29,0.25-0.53,0.55-0.7,0.92c-0.18,0.36-0.26,0.79-0.26,1.29v17.02l-14.79-17.5c-0.55-0.64-1.28-1.2-2.19-1.68
			c-0.9-0.48-1.79-0.71-2.67-0.7c-0.88,0.01-1.63,0.36-2.27,1.03c-0.64,0.67-0.96,1.84-0.96,3.5v21.35c0,0.5,0.09,0.93,0.26,1.29
			c0.17,0.36,0.41,0.67,0.7,0.92c0.29,0.25,0.61,0.43,0.96,0.55c0.35,0.12,0.69,0.17,1.01,0.17c0.32,0,0.66-0.06,1.01-0.17
			c0.35-0.12,0.66-0.3,0.94-0.55c0.28-0.25,0.51-0.55,0.7-0.92c0.19-0.36,0.28-0.79,0.28-1.29V30.15l14.79,17.45
			c0.38,0.47,0.85,0.89,1.4,1.27c0.55,0.38,1.13,0.67,1.73,0.87c0.6,0.2,1.19,0.31,1.77,0.31c0.61,0,1.15-0.16,1.62-0.48
			c0.47-0.32,0.85-0.81,1.14-1.47C169.82,47.45,169.97,46.57,169.97,45.46z M138.62,24.2c0-0.32-0.06-0.66-0.17-1.01
			c-0.12-0.35-0.3-0.66-0.55-0.94c-0.25-0.28-0.55-0.51-0.92-0.7c-0.36-0.19-0.79-0.28-1.29-0.28h-19.2c-0.67,0-1.33,0.12-1.97,0.35
			c-0.64,0.23-1.22,0.58-1.73,1.03c-0.51,0.45-0.92,1-1.22,1.64c-0.31,0.64-0.46,1.37-0.46,2.19v18.46c0,0.82,0.15,1.55,0.46,2.19
			c0.31,0.64,0.71,1.19,1.2,1.64c0.5,0.45,1.08,0.79,1.75,1.03c0.67,0.23,1.36,0.35,2.06,0.35h19.03c0.47,0,0.89-0.09,1.27-0.26
			c0.38-0.17,0.69-0.41,0.94-0.7c0.25-0.29,0.44-0.61,0.57-0.94c0.13-0.34,0.2-0.68,0.2-1.03c0-0.35-0.07-0.69-0.2-1.03
			c-0.13-0.34-0.32-0.65-0.57-0.94c-0.25-0.29-0.56-0.53-0.94-0.7c-0.38-0.18-0.8-0.26-1.27-0.26h-18.59v-5.56h18.42
			c0.47,0,0.89-0.09,1.27-0.26c0.38-0.17,0.69-0.41,0.94-0.7c0.25-0.29,0.44-0.61,0.57-0.94c0.13-0.34,0.2-0.68,0.2-1.03
			c0-0.35-0.07-0.69-0.2-1.03c-0.13-0.34-0.32-0.65-0.57-0.94c-0.25-0.29-0.56-0.52-0.94-0.7c-0.38-0.17-0.8-0.26-1.27-0.26h-18.46
			v-5.73h18.72c0.5,0,0.93-0.09,1.29-0.26c0.36-0.17,0.67-0.41,0.92-0.7c0.25-0.29,0.43-0.61,0.55-0.96
			C138.56,24.85,138.62,24.52,138.62,24.2z M108.5,34.35V24.07c0-0.5-0.09-0.93-0.28-1.29c-0.19-0.36-0.42-0.67-0.7-0.92
			c-0.28-0.25-0.59-0.43-0.94-0.55c-0.35-0.12-0.69-0.18-1.01-0.18s-0.66,0.06-1.01,0.18c-0.35,0.12-0.67,0.3-0.96,0.55
			c-0.29,0.25-0.52,0.55-0.7,0.92c-0.17,0.36-0.26,0.79-0.26,1.29V34.7c-0.03,0.03-0.04,0.06-0.04,0.09c0,0.03-0.01,0.06-0.04,0.09
			c-0.9,1.55-1.82,3.1-2.76,4.66c-0.93,1.56-1.94,3.05-3.02,4.48c-0.12-0.17-0.35-0.52-0.7-1.05c-0.35-0.53-0.74-1.12-1.18-1.79
			c-0.44-0.67-0.9-1.39-1.38-2.14c-0.48-0.76-0.92-1.47-1.31-2.12c-0.39-0.66-0.72-1.22-0.98-1.71c-0.26-0.48-0.39-0.78-0.39-0.9
			V24.07c0-0.5-0.09-0.93-0.28-1.29c-0.19-0.36-0.42-0.67-0.7-0.92c-0.28-0.25-0.59-0.43-0.94-0.55c-0.35-0.12-0.69-0.18-1.01-0.18
			c-0.32,0-0.66,0.06-1.01,0.18c-0.35,0.12-0.67,0.3-0.96,0.55c-0.29,0.25-0.52,0.55-0.7,0.92c-0.18,0.36-0.26,0.79-0.26,1.29V34.3
			c0,0.5,0.06,0.95,0.17,1.38c0.12,0.42,0.26,0.84,0.44,1.25c0.2,0.44,0.49,0.99,0.85,1.66c0.36,0.67,0.77,1.39,1.22,2.17
			c0.45,0.77,0.93,1.57,1.44,2.38c0.51,0.82,1.01,1.59,1.51,2.32c0.5,0.73,0.96,1.39,1.4,1.97c0.44,0.58,0.8,1.04,1.09,1.36
			c0.44,0.5,0.98,0.87,1.62,1.14c0.64,0.26,1.31,0.4,2.01,0.42c0.7,0.01,1.39-0.11,2.06-0.37c0.67-0.26,1.25-0.69,1.75-1.27
			c0.03-0.03,0.21-0.31,0.55-0.85c0.34-0.54,0.78-1.25,1.33-2.12c0.55-0.88,1.12-1.76,1.68-2.65c0.57-0.89,1.09-1.72,1.57-2.49
			c0.48-0.77,0.82-1.33,1.03-1.68c0.44-0.76,0.85-1.47,1.22-2.14C108.31,36.08,108.5,35.28,108.5,34.35z"/>
		<path class="st1" d="M262.8,63.31c0.98,0.41,1.72,0.96,2.21,1.64c0.5,0.68,0.75,1.49,0.75,2.43c0,1.37-0.44,2.47-1.32,3.3
			c-0.88,0.84-2.05,1.26-3.5,1.26c-1.19,0-2.18-0.3-2.98-0.9c-0.8-0.6-1.34-1.45-1.62-2.55l1.62-0.79c0.22,0.9,0.58,1.58,1.09,2.05
			c0.5,0.46,1.13,0.7,1.9,0.7c0.9,0,1.62-0.26,2.18-0.77c0.55-0.51,0.83-1.18,0.83-2c0-0.67-0.19-1.24-0.58-1.73
			c-0.39-0.49-0.97-0.91-1.75-1.24l-1.83-0.77c-1-0.41-1.75-0.94-2.24-1.6c-0.49-0.65-0.74-1.43-0.74-2.34
			c0-1.06,0.4-1.93,1.19-2.62c0.8-0.69,1.81-1.04,3.05-1.04c0.9,0,1.69,0.19,2.35,0.57c0.66,0.38,1.18,0.94,1.55,1.68l-1.48,0.93
			c-0.33-0.58-0.71-1-1.13-1.28c-0.42-0.28-0.89-0.42-1.42-0.42c-0.67,0-1.22,0.2-1.65,0.61c-0.43,0.41-0.64,0.92-0.64,1.55
			c0,0.53,0.16,0.98,0.49,1.37c0.33,0.39,0.84,0.73,1.53,1.03L262.8,63.31z M242.05,71.57V56.69h2.89c2.14,0,3.64,0.11,4.52,0.32
			c0.87,0.22,1.64,0.57,2.3,1.07c0.86,0.66,1.52,1.5,1.96,2.52c0.45,1.02,0.67,2.2,0.67,3.54c0,1.33-0.22,2.5-0.66,3.52
			c-0.44,1.02-1.1,1.86-1.97,2.52c-0.66,0.5-1.41,0.86-2.25,1.07c-0.84,0.21-2.15,0.32-3.92,0.32h-0.65H242.05z M243.86,69.9H245
			c1.85,0,3.13-0.08,3.84-0.24c0.71-0.16,1.31-0.43,1.78-0.82c0.62-0.51,1.09-1.16,1.41-1.96c0.32-0.8,0.48-1.72,0.48-2.76
			c0-1.04-0.16-1.96-0.48-2.75c-0.32-0.79-0.79-1.44-1.41-1.96c-0.47-0.39-1.07-0.67-1.8-0.84c-0.73-0.17-2-0.25-3.82-0.25h-1.14
			V69.9z M239.12,64.16c0,1.06-0.2,2.07-0.6,3.01c-0.4,0.94-0.98,1.78-1.74,2.51c-0.76,0.73-1.64,1.29-2.63,1.69
			c-0.99,0.4-2.02,0.59-3.08,0.59c-1.06,0-2.08-0.2-3.07-0.59c-0.98-0.4-1.86-0.96-2.62-1.69c-0.77-0.74-1.35-1.58-1.75-2.52
			c-0.4-0.94-0.6-1.94-0.6-3c0-1.06,0.2-2.07,0.6-3.01c0.4-0.94,0.99-1.79,1.75-2.52c0.75-0.72,1.62-1.28,2.61-1.67
			c0.99-0.39,2.01-0.59,3.07-0.59c1.07,0,2.1,0.2,3.09,0.59c0.99,0.39,1.86,0.95,2.62,1.67c0.76,0.73,1.34,1.57,1.74,2.51
			C238.92,62.08,239.12,63.09,239.12,64.16z M231.08,70.3c0.82,0,1.61-0.15,2.35-0.46c0.74-0.31,1.41-0.76,2.01-1.35
			c0.59-0.58,1.04-1.24,1.35-1.98c0.31-0.74,0.46-1.52,0.46-2.35c0-0.83-0.15-1.63-0.47-2.38c-0.31-0.75-0.76-1.41-1.34-1.99
			c-0.59-0.58-1.26-1.03-2-1.33c-0.74-0.31-1.53-0.46-2.36-0.46c-0.84,0-1.63,0.15-2.38,0.46c-0.75,0.31-1.41,0.75-1.98,1.33
			c-0.59,0.59-1.04,1.26-1.35,2c-0.31,0.75-0.46,1.54-0.46,2.37c0,0.83,0.15,1.61,0.46,2.34c0.31,0.73,0.76,1.39,1.35,1.99
			c0.6,0.6,1.27,1.05,2.01,1.35C229.47,70.14,230.25,70.3,231.08,70.3z M220.8,64.16c0,1.06-0.2,2.07-0.6,3.01
			c-0.4,0.94-0.98,1.78-1.74,2.51c-0.76,0.73-1.64,1.29-2.63,1.69c-0.99,0.4-2.02,0.59-3.08,0.59c-1.06,0-2.08-0.2-3.07-0.59
			c-0.98-0.4-1.86-0.96-2.62-1.69c-0.77-0.74-1.35-1.58-1.75-2.52c-0.4-0.94-0.6-1.94-0.6-3c0-1.06,0.2-2.07,0.6-3.01
			c0.4-0.94,0.99-1.79,1.75-2.52c0.75-0.72,1.62-1.28,2.61-1.67c0.99-0.39,2.01-0.59,3.07-0.59c1.07,0,2.1,0.2,3.09,0.59
			c0.99,0.39,1.86,0.95,2.62,1.67c0.76,0.73,1.34,1.57,1.74,2.51C220.6,62.08,220.8,63.09,220.8,64.16z M212.76,70.3
			c0.82,0,1.61-0.15,2.35-0.46c0.74-0.31,1.41-0.76,2.01-1.35c0.59-0.58,1.04-1.24,1.35-1.98c0.31-0.74,0.46-1.52,0.46-2.35
			c0-0.83-0.15-1.63-0.47-2.38c-0.31-0.75-0.76-1.41-1.34-1.99c-0.59-0.58-1.26-1.03-2-1.33c-0.74-0.31-1.53-0.46-2.36-0.46
			c-0.84,0-1.63,0.15-2.38,0.46c-0.75,0.31-1.41,0.75-1.98,1.33c-0.59,0.59-1.04,1.26-1.35,2c-0.31,0.75-0.46,1.54-0.46,2.37
			c0,0.83,0.15,1.61,0.46,2.34c0.31,0.73,0.76,1.39,1.35,1.99c0.6,0.6,1.27,1.05,2.01,1.35C211.15,70.14,211.93,70.3,212.76,70.3z
			 M194.74,71.57V56.69h7.94v1.62h-6.15v4.27h6.15v1.64h-6.15v7.34H194.74z M185.22,58.19v4.97h1.37c1.4,0,2.34-0.18,2.81-0.53
			c0.47-0.35,0.71-0.97,0.71-1.86c0-0.95-0.24-1.62-0.73-2c-0.49-0.38-1.42-0.57-2.79-0.57H185.22z M183.47,71.57V56.69h3.54
			c1.01,0,1.75,0.06,2.21,0.17c0.47,0.11,0.88,0.31,1.24,0.58c0.45,0.34,0.79,0.81,1.04,1.39c0.25,0.58,0.37,1.22,0.37,1.92
			c0,1.22-0.34,2.15-1.03,2.78c-0.69,0.63-1.7,0.95-3.03,0.95h-0.32l5.75,7.09h-2.27l-5.49-7.09h-0.25v7.09H183.47z M172.51,71.57
			V56.69h7.94v1.62h-6.15v4.27h6.15v1.64h-6.15v5.7h6.15v1.64H172.51z M163.56,63.28h0.91c1.53,0,2.57-0.18,3.1-0.53
			c0.53-0.35,0.8-0.97,0.8-1.86c0-0.95-0.27-1.61-0.82-2c-0.54-0.38-1.57-0.58-3.08-0.58h-0.91V63.28z M163.56,64.89v6.68h-1.75
			V56.69h3.15c1.11,0,1.92,0.06,2.44,0.17c0.52,0.11,0.98,0.31,1.36,0.57c0.48,0.34,0.86,0.8,1.13,1.39
			c0.27,0.59,0.41,1.24,0.41,1.96c0,0.72-0.14,1.37-0.41,1.96c-0.27,0.59-0.65,1.05-1.13,1.39c-0.38,0.27-0.84,0.46-1.35,0.58
			c-0.52,0.11-1.33,0.17-2.45,0.17h-0.5H163.56z M146.59,56.69h1.81v9.26c0,1.5,0.32,2.61,0.97,3.31c0.65,0.7,1.66,1.06,3.05,1.06
			c1.39,0,2.4-0.35,3.05-1.06c0.65-0.7,0.97-1.81,0.97-3.31v-9.26h1.81v9.26c0,2.01-0.48,3.52-1.45,4.51c-0.97,1-2.43,1.5-4.38,1.5
			c-1.95,0-3.4-0.5-4.38-1.5c-0.97-1-1.45-2.5-1.45-4.51V56.69z M141.31,63.31c0.98,0.41,1.72,0.96,2.21,1.64
			c0.5,0.68,0.75,1.49,0.75,2.43c0,1.37-0.44,2.47-1.32,3.3c-0.88,0.84-2.05,1.26-3.5,1.26c-1.19,0-2.18-0.3-2.98-0.9
			c-0.8-0.6-1.34-1.45-1.62-2.55l1.62-0.79c0.22,0.9,0.58,1.58,1.09,2.05c0.5,0.46,1.13,0.7,1.9,0.7c0.9,0,1.62-0.26,2.18-0.77
			c0.55-0.51,0.83-1.18,0.83-2c0-0.67-0.19-1.24-0.58-1.73c-0.39-0.49-0.97-0.91-1.75-1.24l-1.83-0.77c-1-0.41-1.75-0.94-2.24-1.6
			c-0.49-0.65-0.74-1.43-0.74-2.34c0-1.06,0.4-1.93,1.19-2.62c0.8-0.69,1.81-1.04,3.05-1.04c0.9,0,1.69,0.19,2.35,0.57
			c0.66,0.38,1.18,0.94,1.55,1.68l-1.48,0.93c-0.33-0.58-0.71-1-1.13-1.28c-0.42-0.28-0.89-0.42-1.42-0.42
			c-0.67,0-1.22,0.2-1.65,0.61c-0.43,0.41-0.64,0.92-0.64,1.55c0,0.53,0.17,0.98,0.5,1.37c0.33,0.39,0.84,0.73,1.53,1.03
			L141.31,63.31z"/>
	</g>
</g>
</svg>
