<?xml version="1.0" encoding="utf-8"?>
<!-- Generator: Adobe Illustrator 26.0.3, SVG Export Plug-In . SVG Version: 6.00 Build 0)  -->
<svg version="1.1" id="Capa_1" xmlns="http://www.w3.org/2000/svg" xmlns:xlink="http://www.w3.org/1999/xlink" x="0px" y="0px"
	 viewBox="0 0 315.54 111.69" style="enable-background:new 0 0 315.54 111.69;" xml:space="preserve">
<style type="text/css">
	.st0{fill-rule:evenodd;clip-rule:evenodd;fill:#01A630;}
	.st1{fill:#FFFFFF;}
</style>
<path class="st0" d="M71.35,74.23h172.97c8.06,0,14.66,6.6,14.66,14.66v0c0,8.06-6.6,14.66-14.66,14.66H71.35
	c-8.06,0-14.66-6.6-14.66-14.66v0C56.69,80.83,63.29,74.23,71.35,74.23"/>
<path d="M306.55,46.24h-20.29V38.4h20.29V46.24z M314.87,63.42c-1.16-1.52-2.3-3.04-3.44-4.58c-1.14-1.54-2.32-3.06-3.56-4.58
	c0.92-0.04,1.8-0.24,2.63-0.6c0.84-0.36,1.57-0.85,2.19-1.47c0.62-0.62,1.11-1.34,1.47-2.16c0.36-0.82,0.54-1.75,0.54-2.78V37.5
	c0-1.12-0.2-2.12-0.6-2.99c-0.4-0.88-0.93-1.62-1.59-2.22c-0.66-0.6-1.43-1.06-2.3-1.38c-0.88-0.32-1.82-0.48-2.81-0.48h-25.14
	c-1.12,0-2.07,0.39-2.84,1.17c-0.78,0.78-1.17,1.73-1.17,2.84v17.06v11.85v2.57c0,0.68,0.12,1.27,0.36,1.77
	c0.24,0.5,0.56,0.92,0.96,1.26c0.4,0.34,0.83,0.6,1.29,0.78c0.46,0.18,0.93,0.27,1.41,0.27c0.48,0,0.95-0.09,1.41-0.27
	c0.46-0.18,0.89-0.44,1.29-0.78c0.4-0.34,0.72-0.76,0.96-1.26c0.24-0.5,0.36-1.09,0.36-1.77v-2.57v-9.1h9.46
	c0.72,0,1.48,0.34,2.27,1.02c0.8,0.68,1.59,1.48,2.36,2.39c0.78,0.92,1.51,1.85,2.19,2.78c0.68,0.94,1.22,1.67,1.62,2.19
	c0.72,0.96,1.43,1.89,2.13,2.78c0.7,0.9,1.23,1.58,1.59,2.04c0.36,0.46,0.56,0.73,0.6,0.81c1,1.32,2.01,1.96,3.02,1.92
	c1.02-0.04,1.89-0.43,2.6-1.17c0.72-0.74,1.18-1.66,1.38-2.75C315.67,65.17,315.47,64.22,314.87,63.42z M266.89,61.92h-19.76V38.34
	h19.76V61.92z M274.67,62.64V37.5c0-2.16-0.68-3.88-2.04-5.18c-1.36-1.3-3.09-1.95-5.21-1.95h-21.07c-1.04,0-2,0.17-2.87,0.51
	c-0.88,0.34-1.64,0.82-2.28,1.44c-0.64,0.62-1.15,1.37-1.53,2.24c-0.38,0.88-0.57,1.84-0.57,2.87v25.32c0,1.04,0.21,2,0.63,2.87
	c0.42,0.88,0.97,1.64,1.65,2.27c0.68,0.64,1.47,1.13,2.36,1.47s1.83,0.51,2.78,0.51l21.01,0.06c2.23,0,3.98-0.66,5.24-1.98
	C274.04,66.65,274.67,64.88,274.67,62.64z M235.55,65.75V34.38c0-0.68-0.13-1.27-0.39-1.77c-0.26-0.5-0.58-0.92-0.96-1.26
	c-0.38-0.34-0.81-0.59-1.29-0.75c-0.48-0.16-0.94-0.24-1.38-0.24c-0.44,0-0.9,0.08-1.38,0.24c-0.48,0.16-0.92,0.41-1.32,0.75
	c-0.4,0.34-0.72,0.76-0.96,1.26c-0.24,0.5-0.36,1.09-0.36,1.77V46.3h-20.35V34.38c0-0.68-0.13-1.27-0.39-1.77
	c-0.26-0.5-0.58-0.92-0.96-1.26c-0.38-0.34-0.81-0.59-1.29-0.75c-0.48-0.16-0.94-0.24-1.38-0.24c-0.44,0-0.9,0.08-1.38,0.24
	c-0.48,0.16-0.92,0.41-1.32,0.75c-0.4,0.34-0.72,0.76-0.96,1.26c-0.24,0.5-0.36,1.09-0.36,1.77v31.37c0,0.68,0.12,1.27,0.36,1.77
	c0.24,0.5,0.56,0.92,0.96,1.26c0.4,0.34,0.83,0.6,1.29,0.78c0.46,0.18,0.93,0.27,1.41,0.27c0.48,0,0.95-0.09,1.41-0.27
	c0.46-0.18,0.89-0.44,1.29-0.78c0.4-0.34,0.72-0.76,0.96-1.26c0.24-0.5,0.36-1.09,0.36-1.77V54.32h20.35v11.43
	c0,0.68,0.12,1.27,0.36,1.77c0.24,0.5,0.56,0.92,0.96,1.26c0.4,0.34,0.83,0.6,1.29,0.78c0.46,0.18,0.93,0.27,1.41,0.27
	c0.48,0,0.95-0.09,1.41-0.27c0.46-0.18,0.89-0.44,1.29-0.78c0.4-0.34,0.72-0.76,0.96-1.26C235.43,67.02,235.55,66.43,235.55,65.75z
	 M195.58,34.38c0-0.48-0.09-0.95-0.27-1.41c-0.18-0.46-0.43-0.89-0.75-1.29c-0.32-0.4-0.74-0.72-1.26-0.96
	c-0.52-0.24-1.1-0.36-1.74-0.36h-10.42c-0.56,0-1.13,0.04-1.71,0.12c-0.58,0.08-1.15,0.22-1.71,0.42c-0.56-0.24-1.12-0.39-1.68-0.45
	c-0.56-0.06-1.12-0.09-1.68-0.09h-10.42c-0.68,0-1.27,0.13-1.77,0.39c-0.5,0.26-0.92,0.58-1.26,0.96c-0.34,0.38-0.59,0.81-0.75,1.29
	c-0.16,0.48-0.24,0.94-0.24,1.38c0,0.44,0.08,0.9,0.24,1.38c0.16,0.48,0.41,0.92,0.75,1.32c0.34,0.4,0.76,0.72,1.26,0.96
	c0.5,0.24,1.09,0.36,1.77,0.36h9.76v27.42c0,1.32,0.43,2.32,1.29,3.02c0.86,0.7,1.77,1.05,2.72,1.05c0.48,0,0.95-0.09,1.41-0.27
	c0.46-0.18,0.89-0.44,1.29-0.78c0.4-0.34,0.72-0.76,0.96-1.26c0.24-0.5,0.36-1.09,0.36-1.77V38.4h9.82c0.64,0,1.22-0.12,1.74-0.36
	c0.52-0.24,0.94-0.56,1.26-0.96c0.32-0.4,0.57-0.83,0.75-1.29C195.5,35.33,195.58,34.86,195.58,34.38z M148.44,46.3h-20.53
	l-0.06-7.66h20.59V46.3z M156.4,65.93V38.16c0-1.36-0.25-2.52-0.75-3.5c-0.5-0.98-1.15-1.79-1.95-2.42
	c-0.8-0.64-1.69-1.11-2.66-1.41c-0.98-0.3-1.97-0.45-2.96-0.45h-20.06c-1.12,0-2.17,0.18-3.14,0.54c-0.98,0.36-1.84,0.87-2.57,1.53
	c-0.74,0.66-1.33,1.48-1.77,2.45c-0.44,0.98-0.66,2.09-0.66,3.32v27.78c0,0.68,0.12,1.27,0.36,1.77c0.24,0.5,0.56,0.92,0.96,1.26
	c0.4,0.34,0.84,0.59,1.32,0.75c0.48,0.16,0.94,0.24,1.38,0.24c0.44,0,0.9-0.08,1.38-0.24c0.48-0.16,0.91-0.41,1.29-0.75
	c0.38-0.34,0.7-0.76,0.96-1.26c0.26-0.5,0.39-1.09,0.39-1.77V54.38h20.53v11.67c0,0.68,0.13,1.27,0.39,1.77
	c0.26,0.5,0.58,0.92,0.96,1.26c0.38,0.34,0.81,0.58,1.29,0.72c0.48,0.14,0.96,0.21,1.44,0.21c0.92-0.04,1.8-0.41,2.63-1.11
	C155.98,68.2,156.4,67.21,156.4,65.93z M116.32,63.48V34.32c0-0.68-0.13-1.27-0.39-1.77c-0.26-0.5-0.58-0.92-0.96-1.26
	c-0.38-0.34-0.81-0.59-1.29-0.75c-0.48-0.16-0.94-0.24-1.38-0.24c-0.44,0-0.9,0.08-1.38,0.24c-0.48,0.16-0.92,0.41-1.32,0.75
	c-0.4,0.34-0.72,0.76-0.96,1.26c-0.24,0.5-0.36,1.09-0.36,1.77v23.29L88.06,33.67c-0.76-0.88-1.76-1.65-2.99-2.3
	c-1.24-0.66-2.45-0.98-3.65-0.96c-1.2,0.02-2.24,0.49-3.11,1.41c-0.88,0.92-1.32,2.51-1.32,4.79v29.21c0,0.68,0.12,1.27,0.36,1.77
	c0.24,0.5,0.56,0.92,0.96,1.26c0.4,0.34,0.84,0.59,1.32,0.75c0.48,0.16,0.94,0.24,1.38,0.24c0.44,0,0.9-0.08,1.38-0.24
	c0.48-0.16,0.91-0.41,1.29-0.75c0.38-0.34,0.7-0.76,0.96-1.26c0.26-0.5,0.39-1.09,0.39-1.77V42.53l20.24,23.89
	c0.52,0.64,1.16,1.22,1.92,1.74c0.76,0.52,1.55,0.92,2.36,1.2c0.82,0.28,1.63,0.42,2.42,0.42c0.84,0,1.58-0.22,2.21-0.66
	c0.64-0.44,1.16-1.11,1.56-2.01C116.12,66.2,116.32,65,116.32,63.48z M73.43,34.38c0-0.44-0.08-0.9-0.24-1.38
	c-0.16-0.48-0.41-0.91-0.75-1.29c-0.34-0.38-0.76-0.7-1.26-0.96c-0.5-0.26-1.09-0.39-1.77-0.39H43.13c-0.92,0-1.82,0.16-2.69,0.48
	c-0.88,0.32-1.67,0.79-2.36,1.41c-0.7,0.62-1.26,1.37-1.68,2.25c-0.42,0.88-0.63,1.88-0.63,2.99v25.26c0,1.12,0.21,2.12,0.63,2.99
	c0.42,0.88,0.97,1.63,1.65,2.25c0.68,0.62,1.48,1.09,2.39,1.41c0.92,0.32,1.86,0.48,2.81,0.48H69.3c0.64,0,1.22-0.12,1.74-0.36
	c0.52-0.24,0.95-0.56,1.29-0.96c0.34-0.4,0.6-0.83,0.78-1.29c0.18-0.46,0.27-0.93,0.27-1.41c0-0.48-0.09-0.95-0.27-1.41
	c-0.18-0.46-0.44-0.89-0.78-1.29c-0.34-0.4-0.77-0.72-1.29-0.96c-0.52-0.24-1.1-0.36-1.74-0.36H43.85v-7.6h25.2
	c0.64,0,1.22-0.12,1.74-0.36c0.52-0.24,0.95-0.56,1.29-0.96c0.34-0.4,0.6-0.83,0.78-1.29c0.18-0.46,0.27-0.93,0.27-1.41
	c0-0.48-0.09-0.95-0.27-1.41c-0.18-0.46-0.44-0.89-0.78-1.29c-0.34-0.4-0.77-0.72-1.29-0.96c-0.52-0.24-1.1-0.36-1.74-0.36H43.79
	V38.4h25.62c0.68,0,1.27-0.12,1.77-0.36c0.5-0.24,0.92-0.56,1.26-0.96c0.34-0.4,0.59-0.84,0.75-1.32
	C73.35,35.28,73.43,34.82,73.43,34.38z M32.21,48.27V34.2c0-0.68-0.13-1.27-0.39-1.77c-0.26-0.5-0.58-0.92-0.96-1.26
	c-0.38-0.34-0.81-0.59-1.29-0.75c-0.48-0.16-0.94-0.24-1.38-0.24c-0.44,0-0.9,0.08-1.38,0.24c-0.48,0.16-0.92,0.41-1.32,0.75
	c-0.4,0.34-0.72,0.76-0.96,1.26c-0.24,0.5-0.36,1.09-0.36,1.77v14.55c-0.04,0.04-0.06,0.08-0.06,0.12c0,0.04-0.02,0.08-0.06,0.12
	c-1.24,2.12-2.49,4.24-3.77,6.38c-1.28,2.14-2.65,4.18-4.13,6.14c-0.16-0.24-0.48-0.72-0.96-1.44c-0.48-0.72-1.02-1.54-1.62-2.45
	c-0.6-0.92-1.23-1.9-1.89-2.93c-0.66-1.04-1.26-2.01-1.8-2.9c-0.54-0.9-0.99-1.68-1.35-2.33c-0.36-0.66-0.54-1.07-0.54-1.23V34.2
	c0-0.68-0.13-1.27-0.39-1.77c-0.26-0.5-0.58-0.92-0.96-1.26c-0.38-0.34-0.81-0.59-1.29-0.75s-0.94-0.24-1.38-0.24
	c-0.44,0-0.9,0.08-1.38,0.24c-0.48,0.16-0.92,0.41-1.32,0.75c-0.4,0.34-0.72,0.76-0.96,1.26C0.12,32.94,0,33.53,0,34.2v14.01
	c0,0.68,0.08,1.31,0.24,1.89c0.16,0.58,0.36,1.15,0.6,1.71c0.28,0.6,0.67,1.36,1.17,2.27c0.5,0.92,1.06,1.91,1.68,2.96
	c0.62,1.06,1.28,2.15,1.98,3.26c0.7,1.12,1.39,2.18,2.07,3.17c0.68,1,1.32,1.9,1.92,2.69c0.6,0.8,1.1,1.42,1.5,1.86
	c0.6,0.68,1.34,1.2,2.21,1.56c0.88,0.36,1.8,0.55,2.75,0.57c0.96,0.02,1.9-0.15,2.81-0.51c0.92-0.36,1.72-0.94,2.39-1.74
	c0.04-0.04,0.29-0.43,0.75-1.17c0.46-0.74,1.07-1.71,1.83-2.9c0.76-1.2,1.53-2.4,2.3-3.62c0.78-1.22,1.5-2.35,2.16-3.41
	c0.66-1.06,1.13-1.83,1.41-2.31c0.6-1.04,1.16-2.02,1.68-2.93C31.95,50.65,32.21,49.55,32.21,48.27z"/>
<path class="st1" d="M243.37,87.91c1.34,0.56,2.35,1.31,3.03,2.25c0.68,0.93,1.02,2.05,1.02,3.32c0,1.87-0.61,3.38-1.81,4.52
	c-1.21,1.14-2.8,1.72-4.79,1.72c-1.62,0-2.98-0.41-4.08-1.23c-1.1-0.82-1.83-1.98-2.22-3.49l2.22-1.09c0.3,1.23,0.8,2.17,1.49,2.8
	c0.69,0.64,1.55,0.95,2.59,0.95c1.23,0,2.22-0.35,2.99-1.05c0.76-0.7,1.14-1.61,1.14-2.73c0-0.91-0.26-1.7-0.8-2.37
	c-0.53-0.67-1.33-1.24-2.4-1.7l-2.51-1.06c-1.37-0.56-2.39-1.29-3.06-2.18c-0.67-0.89-1.01-1.95-1.01-3.2
	c0-1.45,0.54-2.64,1.63-3.59c1.09-0.94,2.48-1.42,4.17-1.42c1.23,0,2.31,0.26,3.21,0.78c0.91,0.52,1.61,1.29,2.12,2.3l-2.03,1.28
	c-0.46-0.79-0.97-1.37-1.55-1.76c-0.57-0.38-1.22-0.58-1.94-0.58c-0.92,0-1.68,0.28-2.26,0.84c-0.59,0.56-0.88,1.26-0.88,2.13
	c0,0.72,0.23,1.35,0.68,1.87c0.45,0.53,1.15,1,2.09,1.4L243.37,87.91z M214.97,99.21V78.85h3.96c2.92,0,4.98,0.15,6.18,0.44
	c1.2,0.29,2.25,0.78,3.15,1.47c1.18,0.9,2.08,2.05,2.69,3.45c0.61,1.4,0.91,3.01,0.91,4.84c0,1.82-0.3,3.42-0.91,4.82
	c-0.6,1.4-1.5,2.54-2.69,3.45c-0.9,0.68-1.93,1.17-3.07,1.47c-1.15,0.29-2.94,0.44-5.37,0.44h-0.88H214.97z M217.45,96.93h1.56
	c2.53,0,4.28-0.11,5.26-0.33c0.97-0.22,1.79-0.59,2.43-1.12c0.85-0.69,1.49-1.59,1.93-2.69c0.44-1.1,0.66-2.36,0.66-3.78
	c0-1.42-0.22-2.68-0.65-3.76c-0.44-1.08-1.08-1.97-1.94-2.68c-0.65-0.54-1.47-0.92-2.47-1.14c-1-0.23-2.74-0.34-5.22-0.34h-1.56
	V96.93z M210.96,89.07c0,1.46-0.27,2.83-0.82,4.11c-0.54,1.29-1.34,2.43-2.38,3.44c-1.04,1-2.24,1.77-3.6,2.32
	c-1.36,0.54-2.76,0.81-4.22,0.81c-1.45,0-2.85-0.27-4.2-0.81c-1.34-0.55-2.54-1.31-3.58-2.32c-1.05-1.01-1.85-2.16-2.4-3.45
	c-0.55-1.29-0.82-2.65-0.82-4.1c0-1.46,0.27-2.83,0.82-4.12c0.55-1.29,1.35-2.44,2.4-3.45c1.03-0.99,2.22-1.76,3.58-2.29
	c1.35-0.54,2.75-0.81,4.21-0.81c1.46,0,2.87,0.27,4.23,0.81c1.35,0.54,2.55,1.3,3.58,2.29c1.04,1,1.83,2.15,2.38,3.44
	C210.69,86.23,210.96,87.6,210.96,89.07z M199.96,97.47c1.12,0,2.2-0.21,3.21-0.63c1.02-0.42,1.94-1.04,2.75-1.85
	c0.81-0.8,1.42-1.7,1.84-2.71c0.42-1.01,0.63-2.08,0.63-3.21c0-1.14-0.21-2.23-0.64-3.26c-0.43-1.03-1.04-1.94-1.84-2.72
	c-0.81-0.8-1.72-1.4-2.74-1.82c-1.01-0.42-2.09-0.63-3.23-0.63c-1.14,0-2.23,0.21-3.25,0.63c-1.02,0.42-1.93,1.03-2.71,1.82
	c-0.81,0.81-1.42,1.72-1.84,2.74c-0.42,1.02-0.63,2.1-0.63,3.24c0,1.13,0.21,2.2,0.62,3.2c0.42,1,1.04,1.91,1.85,2.72
	c0.83,0.82,1.74,1.43,2.75,1.85C197.75,97.26,198.82,97.47,199.96,97.47z M185.89,89.07c0,1.46-0.27,2.83-0.82,4.11
	c-0.54,1.29-1.33,2.43-2.38,3.44c-1.04,1-2.24,1.77-3.6,2.32c-1.36,0.54-2.76,0.81-4.22,0.81c-1.45,0-2.85-0.27-4.2-0.81
	c-1.34-0.55-2.54-1.31-3.58-2.32c-1.05-1.01-1.85-2.16-2.4-3.45c-0.55-1.29-0.82-2.65-0.82-4.1c0-1.46,0.27-2.83,0.82-4.12
	c0.55-1.29,1.35-2.44,2.4-3.45c1.03-0.99,2.22-1.76,3.58-2.29c1.35-0.54,2.75-0.81,4.21-0.81c1.46,0,2.87,0.27,4.23,0.81
	c1.35,0.54,2.55,1.3,3.58,2.29c1.04,1,1.83,2.15,2.38,3.44C185.62,86.23,185.89,87.6,185.89,89.07z M174.88,97.47
	c1.12,0,2.2-0.21,3.21-0.63c1.02-0.42,1.94-1.04,2.75-1.85c0.81-0.8,1.42-1.7,1.84-2.71c0.42-1.01,0.63-2.08,0.63-3.21
	c0-1.14-0.21-2.23-0.64-3.26c-0.43-1.03-1.04-1.94-1.84-2.72c-0.81-0.8-1.72-1.4-2.74-1.82c-1.01-0.42-2.09-0.63-3.23-0.63
	c-1.14,0-2.23,0.21-3.25,0.63c-1.02,0.42-1.93,1.03-2.71,1.82c-0.81,0.81-1.42,1.72-1.84,2.74c-0.42,1.02-0.63,2.1-0.63,3.24
	c0,1.13,0.21,2.2,0.62,3.2c0.42,1,1.04,1.91,1.85,2.72c0.83,0.82,1.74,1.43,2.75,1.85C172.68,97.26,173.75,97.47,174.88,97.47z
	 M150.23,99.21V78.85h10.86v2.22h-8.41v5.84h8.41v2.25h-8.41v10.05H150.23z M137.2,80.9v6.81h1.87c1.92,0,3.2-0.24,3.85-0.73
	c0.65-0.48,0.97-1.33,0.97-2.55c0-1.31-0.33-2.22-1-2.74c-0.67-0.52-1.94-0.78-3.82-0.78H137.2z M134.81,99.21V78.85h4.84
	c1.38,0,2.39,0.08,3.03,0.23c0.64,0.16,1.21,0.42,1.7,0.79c0.61,0.47,1.08,1.11,1.42,1.9c0.34,0.79,0.51,1.67,0.51,2.63
	c0,1.67-0.47,2.94-1.41,3.8c-0.95,0.87-2.32,1.3-4.14,1.3h-0.44l7.87,9.71h-3.11l-7.52-9.71h-0.35v9.71H134.81z M119.8,99.21V78.85
	h10.86v2.22h-8.41v5.84h8.41v2.25h-8.41v7.8h8.41v2.25H119.8z M107.56,87.87h1.24c2.1,0,3.52-0.24,4.24-0.73
	c0.73-0.48,1.09-1.33,1.09-2.55c0-1.3-0.37-2.21-1.12-2.73c-0.74-0.53-2.15-0.79-4.21-0.79h-1.24V87.87z M107.56,90.07v9.14h-2.39
	V78.85h4.32c1.51,0,2.63,0.08,3.34,0.24c0.72,0.16,1.34,0.42,1.86,0.78c0.66,0.46,1.17,1.1,1.54,1.9c0.37,0.81,0.56,1.7,0.56,2.68
	c0,0.99-0.19,1.88-0.56,2.69c-0.37,0.81-0.88,1.44-1.54,1.9c-0.52,0.37-1.14,0.64-1.85,0.79c-0.71,0.16-1.82,0.24-3.35,0.24h-0.69
	H107.56z M84.33,78.85h2.48v12.67c0,2.06,0.44,3.57,1.33,4.53c0.89,0.96,2.28,1.45,4.17,1.45c1.9,0,3.28-0.48,4.17-1.45
	c0.89-0.96,1.33-2.47,1.33-4.53V78.85h2.48v12.67c0,2.75-0.66,4.81-1.99,6.18c-1.33,1.37-3.33,2.05-6,2.05
	c-2.67,0-4.66-0.68-5.99-2.05c-1.33-1.37-1.99-3.43-1.99-6.18V78.85z M77.1,87.91c1.34,0.56,2.35,1.31,3.03,2.25
	c0.68,0.93,1.02,2.05,1.02,3.32c0,1.87-0.61,3.38-1.81,4.52c-1.21,1.14-2.8,1.72-4.79,1.72c-1.62,0-2.98-0.41-4.08-1.23
	c-1.1-0.82-1.83-1.98-2.22-3.49l2.22-1.09c0.3,1.23,0.8,2.17,1.49,2.8c0.69,0.64,1.55,0.95,2.59,0.95c1.23,0,2.22-0.35,2.99-1.05
	c0.76-0.7,1.14-1.61,1.14-2.73c0-0.91-0.26-1.7-0.8-2.37c-0.53-0.67-1.33-1.24-2.4-1.7l-2.51-1.06c-1.37-0.56-2.39-1.29-3.06-2.18
	c-0.67-0.89-1.01-1.95-1.01-3.2c0-1.45,0.54-2.64,1.63-3.59c1.09-0.94,2.48-1.42,4.17-1.42c1.23,0,2.31,0.26,3.21,0.78
	c0.91,0.52,1.61,1.29,2.12,2.3l-2.03,1.28c-0.46-0.79-0.97-1.37-1.55-1.76c-0.57-0.38-1.22-0.58-1.94-0.58
	c-0.92,0-1.68,0.28-2.26,0.84c-0.59,0.56-0.88,1.26-0.88,2.13c0,0.72,0.23,1.35,0.68,1.87c0.45,0.53,1.15,1,2.09,1.4L77.1,87.91z"/>
</svg>
